HIERARCHY
ROOT hip
{
  OFFSET 49.3132 84.9622 241.148
  CHANNELS 6 Xposition Yposition Zposition Zrotation Xrotation Yrotation
  JOINT abdomen
  {
    OFFSET 0 20.6881 -0.73152
    CHANNELS 3 Zrotation Xrotation Yrotation
    JOINT chest
    {
      OFFSET 0 11.7043 -0.48768
      CHANNELS 3 Zrotation Xrotation Yrotation
      JOINT neck
      {
        OFFSET 0 22.1894 -2.19456
        CHANNELS 3 Zrotation Xrotation Yrotation
        JOINT head
        {
          OFFSET -0.24384 7.07133 1.2192
          CHANNELS 3 Zrotation Xrotation Yrotation
          JOINT leftEye
          {
            OFFSET 4.14528 8.04674 8.04672
            CHANNELS 3 Zrotation Xrotation Yrotation
            End Site
            {
              OFFSET 1 0 0
            }
          }
          JOINT rightEye
          {
            OFFSET -3.6576 8.04674 8.04672
            CHANNELS 3 Zrotation Xrotation Yrotation
            End Site
            {
              OFFSET 1 0 0
            }
          }
        }
      }
      JOINT rCollar
      {
        OFFSET -2.68224 19.2634 -4.8768
        CHANNELS 3 Zrotation Xrotation Yrotation
        JOINT rShldr
        {
          OFFSET -8.77824 -1.95073 1.46304
          CHANNELS 3 Zrotation Xrotation Yrotation
          JOINT rForeArm
          {
            OFFSET -28.1742 -1.7115 0.48768
            CHANNELS 3 Zrotation Xrotation Yrotation
            JOINT rHand
            {
              OFFSET -22.5879 0.773209 7.07136
              CHANNELS 3 Zrotation Xrotation Yrotation
              JOINT rThumb1
              {
                OFFSET -1.2192 -0.487915 3.41376
                CHANNELS 3 Zrotation Xrotation Yrotation
                JOINT rThumb2
                {
                  OFFSET -3.37035 -0.52449 3.41376
                  CHANNELS 3 Zrotation Xrotation Yrotation
                  End Site
                  {
                    OFFSET -1.78271 -1.18214 1.43049
                  }
                }
              }
              JOINT rIndex1
              {
                OFFSET -7.75947 0.938293 5.60832
                CHANNELS 3 Zrotation Xrotation Yrotation
                JOINT rIndex2
                {
                  OFFSET -2.54057 -0.884171 1.56538
                  CHANNELS 3 Zrotation Xrotation Yrotation
                  End Site
                  {
                    OFFSET -1.62519 -0.234802 1.16502
                  }
                }
              }
              JOINT rMid1
              {
                OFFSET -8.24714 1.18213 3.41376
                CHANNELS 3 Zrotation Xrotation Yrotation
                JOINT rMid2
                {
                  OFFSET -3.10165 -0.590103 1.0647
                  CHANNELS 3 Zrotation Xrotation Yrotation
                  End Site
                  {
                    OFFSET -2.48547 -0.328903 0.83742
                  }
                }
              }
              JOINT rRing1
              {
                OFFSET -8.82822 0.546677 1.51678
                CHANNELS 3 Zrotation Xrotation Yrotation
                JOINT rRing2
                {
                  OFFSET -2.60934 -0.819778 -0.0198488
                  CHANNELS 3 Zrotation Xrotation Yrotation
                  End Site
                  {
                    OFFSET -2.33842 -0.294052 0.168128
                  }
                }
              }
              JOINT rPinky1
              {
                OFFSET -8.27202 -0.0477905 -0.4584
                CHANNELS 3 Zrotation Xrotation Yrotation
                JOINT rPinky2
                {
                  OFFSET -1.82734 -0.647385 -0.700984
                  CHANNELS 3 Zrotation Xrotation Yrotation
                  End Site
                  {
                    OFFSET -1.69225 -0.51767 -0.607171
                  }
                }
              }
            }
          }
        }
      }
      JOINT lCollar
      {
        OFFSET 2.68224 19.2634 -4.8768
        CHANNELS 3 Zrotation Xrotation Yrotation
        JOINT lShldr
        {
          OFFSET 8.77824 -1.95073 1.46304
          CHANNELS 3 Zrotation Xrotation Yrotation
          JOINT lForeArm
          {
            OFFSET 28.1742 -1.7115 0.48768
            CHANNELS 3 Zrotation Xrotation Yrotation
            JOINT lHand
            {
              OFFSET 22.5879 0.773209 7.07136
              CHANNELS 3 Zrotation Xrotation Yrotation
              JOINT lThumb1
              {
                OFFSET 1.2192 -0.487915 3.41376
                CHANNELS 3 Zrotation Xrotation Yrotation
                JOINT lThumb2
                {
                  OFFSET 3.37035 -0.52449 3.41376
                  CHANNELS 3 Zrotation Xrotation Yrotation
                  End Site
                  {
                    OFFSET 1.78271 -1.18214 1.43049
                  }
                }
              }
              JOINT lIndex1
              {
                OFFSET 7.75947 0.938293 5.60832
                CHANNELS 3 Zrotation Xrotation Yrotation
                JOINT lIndex2
                {
                  OFFSET 2.54057 -0.884171 1.56538
                  CHANNELS 3 Zrotation Xrotation Yrotation
                  End Site
                  {
                    OFFSET 1.62519 -0.234802 1.16502
                  }
                }
              }
              JOINT lMid1
              {
                OFFSET 8.24714 1.18213 3.41376
                CHANNELS 3 Zrotation Xrotation Yrotation
                JOINT lMid2
                {
                  OFFSET 3.10165 -0.590103 1.0647
                  CHANNELS 3 Zrotation Xrotation Yrotation
                  End Site
                  {
                    OFFSET 2.48547 -0.328903 0.83742
                  }
                }
              }
              JOINT lRing1
              {
                OFFSET 8.82822 0.546677 1.51678
                CHANNELS 3 Zrotation Xrotation Yrotation
                JOINT lRing2
                {
                  OFFSET 2.60934 -0.819778 -0.0198488
                  CHANNELS 3 Zrotation Xrotation Yrotation
                  End Site
                  {
                    OFFSET 2.33842 -0.294052 0.168128
                  }
                }
              }
              JOINT lPinky1
              {
                OFFSET 8.27202 -0.0477905 -0.4584
                CHANNELS 3 Zrotation Xrotation Yrotation
                JOINT lPinky2
                {
                  OFFSET 1.82734 -0.647385 -0.700984
                  CHANNELS 3 Zrotation Xrotation Yrotation
                  End Site
                  {
                    OFFSET 1.69225 -0.51767 -0.607171
                  }
                }
              }
            }
          }
        }
      }
    }
  }
  JOINT rButtock
  {
    OFFSET -8.77824 4.35084 1.2192
    CHANNELS 3 Zrotation Xrotation Yrotation
    JOINT rThigh
    {
      OFFSET 0 -1.70687 -2.19456
      CHANNELS 3 Zrotation Xrotation Yrotation
      JOINT rShin
      {
        OFFSET 0 -36.8199 0.73152
        CHANNELS 3 Zrotation Xrotation Yrotation
        JOINT rFoot
        {
          OFFSET 0.73152 -45.1104 -5.12064
          CHANNELS 3 Zrotation Xrotation Yrotation
          End Site
          {
            OFFSET -1.1221 -3.69964 12.103
          }
        }
      }
    }
  }
  JOINT lButtock
  {
    OFFSET 8.77824 4.35084 1.2192
    CHANNELS 3 Zrotation Xrotation Yrotation
    JOINT lThigh
    {
      OFFSET 0 -1.70687 -2.19456
      CHANNELS 3 Zrotation Xrotation Yrotation
      JOINT lShin
      {
        OFFSET 0 -36.8199 0.73152
        CHANNELS 3 Zrotation Xrotation Yrotation
        JOINT lFoot
        {
          OFFSET -0.73152 -45.1104 -5.12064
          CHANNELS 3 Zrotation Xrotation Yrotation
          End Site
          {
            OFFSET 1.1221 -3.69964 12.103
          }
        }
      }
    }
  }
}
MOTION
Frames:	4
Frame Time:	0.00833333
46.7273 85.5269 255.871 -1.7787 0.0059564 0.0336576 2.34101 -0.00222427 0.0637216 0.646598 0.00594968 0.111939 1.92015e-014 -7.95139e-016 2.48481e-017 5.73556e-014 3.18055e-015 9.93923e-017 -0 0 0 -0 0 0 9.49117e-015 3.68839e-017 1.49089e-016 2.0278e-013 6.89534e-016 1.39149e-015 3.48574e-012 -1.00704e-012 -3.18055e-014 3.97106e-011 1.1781e-012 5.725e-014 9.37087e-011 3.69847e-013 6.67917e-014 1.61817e-010 6.36111e-013 9.38264e-014 9.37143e-011 3.70137e-013 4.45278e-014 7.73091 5.47488 0.417314 9.37095e-011 3.69541e-013 6.04305e-014 2.90554 0.965183 0.102902 9.37147e-011 3.70236e-013 5.48646e-014 10.2786 0.731801 0.0259123 9.37069e-011 3.68149e-013 6.04305e-014 2.22167 -0.733487 -0.20892 9.39401e-015 3.45544e-017 -9.93923e-017 1.99679e-013 5.96354e-016 -1.98785e-016 3.45851e-012 1.07185e-012 -4.45278e-014 3.97719e-011 -8.97712e-013 7.95139e-014 9.37825e-011 3.77573e-013 6.04305e-014 1.61972e-010 6.55194e-013 9.78021e-014 9.37767e-011 3.81269e-013 6.36111e-014 -7.73091 5.47488 -0.417314 9.37827e-011 3.77591e-013 6.04305e-014 -2.90554 0.965183 -0.102902 9.3777e-011 3.78088e-013 6.04305e-014 -10.2786 0.731801 -0.0259123 9.37906e-011 3.79281e-013 5.725e-014 -2.22167 -0.733487 0.20892 -2.03217e-016 0 -3.88251e-019 2.21541 -8.02974 -0.231354 0.00607223 8.9737 0.152077 -0.477605 -0.951465 0.034855 2.03217e-016 0 3.88251e-019 1.35199 -1.92788 -0.00535667 0.00846711 -2.07867 0.0694648 0.423944 3.99897 -0.127302 
45.306 84.1537 243.823 -1.68604 -0.418866 43.6669 2.92207 1.18282 1.78845 0.27339 -2.2561 0.616564 1.75212 3.34629 3.66332 -1.56874 -3.47837 6.84408 -0 0 0 -0 0 0 2.59416e-014 -2.68342e-014 -1.77707e-013 22.4295 12.2792 -3.72938 -5.04797 -2.48685 7.66343 0.0315066 3.93907 0.548884 5.45407e-011 7.97408e-011 -2.50165e-010 9.15158e-011 1.36603e-010 -4.31376e-010 5.45472e-011 7.97406e-011 -2.5018e-010 7.73091 5.47488 0.417314 5.45408e-011 7.97402e-011 -2.5017e-010 2.90554 0.965183 0.102902 5.45464e-011 7.97411e-011 -2.50172e-010 10.2786 0.731801 0.0259123 5.45379e-011 7.9741e-011 -2.50165e-010 2.22167 -0.733487 -0.20892 2.58595e-014 -2.68358e-014 -1.77928e-013 -21.9117 7.51868 2.26168 5.07275 -2.50475 -7.69421 -0.0271859 3.65876 -0.510424 6.1906e-010 1.23767e-009 -2.36805e-010 1.06725e-009 2.14048e-009 -4.16223e-010 6.19055e-010 1.23767e-009 -2.36801e-010 -7.73091 5.47488 -0.417314 6.19061e-010 1.23767e-009 -2.36807e-010 -2.90554 0.965183 -0.102902 6.19054e-010 1.23767e-009 -2.36806e-010 -10.2786 0.731801 -0.0259123 6.19068e-010 1.23767e-009 -2.3681e-010 -2.22167 -0.733487 0.20892 -2.03217e-016 0 -3.88251e-019 3.59965 -8.88004 0.722614 0.0571352 15.8165 0.346112 -2.43057 -7.17021 -9.14705 2.03217e-016 0 3.88251e-019 0.167756 -5.28429 -6.67901 -0.0242166 7.25808 -0.109499 0.573949 -2.89028 0.894818 
45.3127 84.151 243.823 -1.2138 -0.00438551 89.7904 3.46149 2.43413 3.61565 -0.078035 -4.64692 1.15336 3.13536 6.83633 7.5765 -2.32513 -6.98931 14.1592 -0 0 0 -0 0 0 4.48034e-014 -5.70356e-014 -3.71271e-013 48.0365 25.0794 -8.28041 -9.66799 -4.96764 15.8109 -0.0179892 8.09976 1.13751 3.99044e-012 1.72803e-010 -5.27538e-010 1.25636e-012 2.96006e-010 -9.09542e-010 3.99799e-012 1.72802e-010 -5.27545e-010 7.73091 5.47488 0.417314 3.98963e-012 1.72802e-010 -5.2754e-010 2.90554 0.965183 0.102902 3.99577e-012 1.72803e-010 -5.27538e-010 10.2786 0.731801 0.0259123 3.98649e-012 1.72805e-010 -5.27531e-010 2.22167 -0.733487 -0.20892 4.47365e-014 -5.70363e-014 -3.71463e-013 -45.7425 15.4302 4.7837 9.7104 -5.00175 -15.8742 0.0155164 7.52596 -1.05703 1.18922e-009 2.58212e-009 -5.03387e-010 2.04978e-009 4.46558e-009 -8.84503e-010 1.18922e-009 2.58213e-009 -5.03383e-010 -7.73091 5.47488 -0.417314 1.18922e-009 2.58212e-009 -5.03392e-010 -2.90554 0.965183 -0.102902 1.18921e-009 2.58212e-009 -5.03391e-010 -10.2786 0.731801 -0.0259123 1.18923e-009 2.58212e-009 -5.03396e-010 -2.22167 -0.733487 0.20892 -2.03217e-016 0 -3.88251e-019 5.09615 -9.77616 1.73459 0.0560924 23.0504 0.571874 -6.67426 -13.1801 -19.2322 2.03217e-016 0 3.88251e-019 -1.93448 -8.65175 -13.8403 0.00687528 17.1285 -0.310873 1.00458 -10.1666 2.00971 
45.3383 84.1508 243.82 -1.37853 1.14574 130.916 3.87013 3.53977 5.2468 -0.352756 -6.77787 1.63582 3.96507 9.87367 11.1382 -2.24165 -9.83779 20.8142 -0 0 0 -0 0 0 5.88423e-014 -8.05764e-014 -5.33419e-013 73.0135 36.1363 -13.5808 -13.1955 -6.92785 23.1472 -0.13603 11.8128 1.67832 -2.37953e-011 2.38483e-010 -7.50629e-010 -4.90875e-011 4.08536e-010 -1.29432e-009 -2.37868e-011 2.38481e-010 -7.50629e-010 7.73091 5.47488 0.417314 -2.37968e-011 2.38482e-010 -7.50629e-010 2.90554 0.965183 0.102902 -2.37902e-011 2.38483e-010 -7.50624e-010 10.2786 0.731801 0.0259123 -2.38001e-011 2.38487e-010 -7.50616e-010 2.22167 -0.733487 -0.20892 5.87904e-014 -8.05765e-014 -5.33586e-013 -67.6345 22.4096 7.27902 13.2483 -6.97341 -23.2423 0.117083 10.9728 -1.55662 1.66961e-009 3.71226e-009 -7.10534e-010 2.87781e-009 6.42013e-009 -1.24887e-009 1.66961e-009 3.71226e-009 -7.10529e-010 -7.73091 5.47488 -0.417314 1.66962e-009 3.71226e-009 -7.10541e-010 -2.90554 0.965183 -0.102902 1.66961e-009 3.71226e-009 -7.1054e-010 -10.2786 0.731801 -0.0259123 1.66962e-009 3.71226e-009 -7.10546e-010 -2.22167 -0.733487 0.20892 -2.03217e-016 0 -3.88251e-019 6.45444 -10.5716 2.64495 -0.000446278 29.5004 0.802662 -12.2971 -17.5908 -28.7545 2.03217e-016 0 3.88251e-019 -4.53079 -11.3691 -20.3574 0.0999138 25.9307 -0.516725 1.63476 -16.6474 3.06354 
